<?xml version="1.0" standalone="no"?>
<!DOCTYPE svg PUBLIC "-//W3C//DTD SVG 20010904//EN"
 "http://www.w3.org/TR/2001/REC-SVG-20010904/DTD/svg10.dtd">
<svg version="1.0" xmlns="http://www.w3.org/2000/svg"
 width="500.000000pt" height="500.000000pt" viewBox="0 0 500.000000 500.000000"
 preserveAspectRatio="xMidYMid meet">

<g transform="translate(0.000000,500.000000) scale(0.100000,-0.100000)"
fill="#000000" stroke="none">
<path d="M2460 4988 c-760 -43 -1426 -587 -1623 -1328 -88 -329 -79 -696 25
-1020 44 -138 123 -309 190 -412 l43 -66 409 1124 410 1124 665 0 666 0 79
-218 c102 -282 722 -1981 732 -2006 6 -15 12 -10 41 35 19 30 58 101 88 159
212 421 250 917 105 1365 -210 644 -754 1112 -1425 1226 -104 17 -275 25 -405
17z"/>
<path d="M2445 3058 c-59 -200 -143 -480 -185 -623 l-78 -260 371 -3 c203 -1
372 0 375 3 3 2 -73 269 -168 592 -95 323 -177 603 -182 621 -5 17 -13 32 -17
32 -5 0 -57 -163 -116 -362z"/>
</g>
</svg>
